<svg xmlns="http://www.w3.org/2000/svg" xmlns:xlink="http://www.w3.org/1999/xlink" version="1.1" x="0px" y="0px" viewBox="0 0 120 150" style="enable-background:new 0 0 120 120;" xml:space="preserve"><path d="M103.7,77.7l-10.9-8c-3.4-2.4-7.7-2.3-10.4,0.4l-6.1,6.1c-1.3,1.3-3.5,1.3-5.5,0.1c-9.1-5.6-21.6-18-27.3-27.1  c-1.2-1.9-1.1-4.1,0.1-5.3l6.1-6.1c2.7-2.7,2.9-7,0.4-10.4l-8-10.9c-2.7-3.6-6.7-5.9-11-6.2c-3.7-0.3-7,0.9-9.4,3.3L16.4,19  c-8,8-8.6,21.4-1.3,31.9c12.1,17.6,36.4,41.7,54.1,53.8c5,3.4,10.6,5.1,16,5.1c6.1,0,11.8-2.1,16.1-6.3l5.3-5.3  c2.4-2.4,3.6-5.8,3.4-9.4C109.6,84.4,107.3,80.4,103.7,77.7z M102.5,93.9l-5.3,5.3c-6,6-16.3,6.2-24.6,0.6  C55.3,88.1,31.7,64.6,19.9,47.5c-5.6-8.2-5.4-18.4,0.6-24.4l5.4-5.3c1.1-1.1,2.6-1.7,4.3-1.7c0.2,0,0.4,0,0.6,0  c2.5,0.2,5,1.6,6.7,3.8l8,10.9c0.7,1,0.8,2.1,0.2,2.7l-6.1,6.1c-3.2,3.2-3.6,8.4-1,12.6c6.1,9.9,19.2,22.9,29.2,29  c4.2,2.6,9.4,2.2,12.6-1l6.1-6.1c0.6-0.6,1.8-0.5,2.8,0.2l10.9,8c2.2,1.6,3.7,4.1,3.9,6.6C104.2,91,103.7,92.7,102.5,93.9z"/><text x="0" y="135" fill="#000000" font-size="5px" font-weight="bold" font-family="'Helvetica Neue', Helvetica, Arial-Unicode, Arial, Sans-serif">Created by Symbolon</text><text x="0" y="140" fill="#000000" font-size="5px" font-weight="bold" font-family="'Helvetica Neue', Helvetica, Arial-Unicode, Arial, Sans-serif">from the Noun Project</text></svg>